<?xml version="1.0" encoding="utf-8"?>
<!-- Generator: Adobe Illustrator 16.0.1, SVG Export Plug-In . SVG Version: 6.00 Build 0)  -->
<!DOCTYPE svg PUBLIC "-//W3C//DTD SVG 1.1//EN" "http://www.w3.org/Graphics/SVG/1.1/DTD/svg11.dtd">
<svg version="1.1" id="Layer_1" xmlns="http://www.w3.org/2000/svg" xmlns:xlink="http://www.w3.org/1999/xlink" x="0px" y="0px"
	 width="159px" height="115px" viewBox="0 -2 159 115" enable-background="new 0 -2 159 115" xml:space="preserve">
<g>
	<path fill="#E13B3F" d="M153.027,43.634c-6.73-22.016-31.992-40.013-71.98-40.057v0.015h-3.185v0.016
		C38.286,3.774,12.876,21.995,6.099,43.516C1.055,59.529,7.079,73.63,14.365,82.93c8.799,11.229,22.272,17.803,38.244,21.875
		c3.982,1.019,10.813,1.855,12.358,2.004c3.646,0.353,8.295,0.564,13.1,0.614v-0.007h3.109l0,0c4.789-0.051,9.43-0.236,13.064-0.586
		c1.545-0.148,9.218-1.316,13.195-2.35c16.379-4.246,28.332-10.373,37.137-21.444C153.614,71.667,157.213,57.32,153.027,43.634z"/>
	<g>
		<g>
			<path fill="#FFFFFF" d="M135.059,34.158c0,1.41-1.136,2.529-2.574,2.529c-1.44,0-2.592-1.119-2.592-2.529
				c0-1.41,1.149-2.513,2.606-2.513C133.923,31.645,135.059,32.749,135.059,34.158z M130.535,34.158
				c0,1.119,0.844,2.007,1.964,2.007c1.087,0.016,1.914-0.888,1.914-1.992c0-1.119-0.827-2.023-1.946-2.023
				C131.379,32.15,130.535,33.055,130.535,34.158z M132.084,35.461h-0.582v-2.514c0.229-0.031,0.551-0.077,0.965-0.077
				c0.477,0,0.69,0.077,0.858,0.199c0.153,0.107,0.261,0.291,0.261,0.536c0,0.307-0.23,0.506-0.521,0.598v0.03
				c0.246,0.077,0.367,0.276,0.444,0.613c0.077,0.383,0.138,0.521,0.185,0.613h-0.611c-0.076-0.092-0.123-0.307-0.199-0.613
				c-0.046-0.26-0.197-0.383-0.521-0.383h-0.274v0.998H132.084z M132.1,34.051h0.276c0.321,0,0.581-0.107,0.581-0.368
				c0-0.229-0.168-0.383-0.536-0.383c-0.153,0-0.261,0.015-0.321,0.031V34.051z"/>
		</g>
	</g>
	<path fill="#FFFFFF" d="M47.337,36.223c-1.322-0.601-2.568,1.434-3.109,2.599c-1.973,4.261-3.302,9.571-3.766,15.227
		c-0.667,8.126,1.367,16.561,7.156,17.825c2.312,0.507,3.715-0.742,4.021-2.597c0.259-1.567,0.195-3.31,0.311-4.737
		c0.35-4.317,1.435-7.944,3.296-11.048c2.236-3.726,5.958-7.735,11.018-8.17c5.854-0.504,7.942,3.547,9.416,7.799
		c0.693-0.092,1.576-0.798,2.354-1.115c1.688-9.316,3.938-18.847,9.511-24.975c1.824-2.004,4.451-3.867,7.628-3.899
		c1.516-0.016,5.643,0.498,5.271,5.942c-0.236,3.5-2.271,6.349-3.953,9.005c-1.71,2.696-3.686,5.224-4.896,8.078
		c5.385-0.721,8.098,2.613,9.321,6.592c1.854-0.894,3.62-1.878,5.462-2.785c1.064-8.157,3.096-15.249,6.686-21.261
		c1.15-1.925,4.36-5.588,7.5-6.104c3.925-0.645,7.805,1.268,6.344,7.033c-0.703,2.776-2.533,5.43-3.86,8.077
		c-1.382,2.755-2.799,5.377-3.767,8.078c5.977-0.457,9.058,3.494,9.793,8.82c1.708-0.546,3.337-1.659,4.896-2.043
		c0.243,3.318,0.615,6.509,0.939,9.749c-1.652,1.561-3.896,2.535-6.026,3.621c-0.765,4.844-1.972,9.293-4.332,13.186
		c-2.192,3.615-6.128,8.104-12.239,7.521c-4.783-0.457-7.44-4.529-8.756-8.82c-1.387-4.512-1.277-10.627-0.285-15.598
		c-0.347,0.062-1.117,0.506-1.506,0.836c0.428,5.952-0.529,11.217-2.637,15.227c-1.963,3.734-5.4,7.547-11.109,7.057
		c-6.371-0.548-10.015-7.016-10.385-13.609c-0.136-2.414,0.111-4.811,0.375-7.188c-0.501-0.121-0.908,0.348-1.574,0.372
		c0.395,5.13-0.467,10.384-2.731,14.297c-2.302,3.978-6.082,7.901-12.241,7.335c-3.222-0.296-5.779-2.515-6.78-5.385
		c-2.779,4.107-5.443,5.602-10.263,6.221c-4.94,0.635-8.649-2.691-10.829-5.662c-4.381-5.972-7.114-15.662-7.156-25.998
		c-0.036-8.847,2.094-16.951,5.744-22.932c3.53-5.786,9.577-10.871,17.42-11.327c10.875-0.633,12.669,13.704,9.322,22.84
		c-0.983,2.684-2.86,5.451-5.65,5.942c-4.542,0.797-7.221-3.273-7.344-7.149C45.842,40.521,46.94,38.298,47.337,36.223z
		 M86.415,67.697c0.116,1.576,0.603,4.479,2.354,4.549c2.27,0.09,3.025-3.977,3.201-6.87c0.092-1.524-0.074-3.144-0.379-4.644
		c-0.324-1.614-0.91-3.674-2.729-3.062C86.902,59.512,86.111,63.589,86.415,67.697z M112.216,66.676
		c-0.135,2.396-0.003,6.045,1.978,6.035c2.307-0.011,3.357-6.023,3.484-8.264c0.147-2.629,0.059-6.499-2.072-6.034
		C113.543,58.861,112.395,63.514,112.216,66.676z M65.133,58.691c-2.279,1.386-3.492,5.466-3.483,9.47
		c0.004,2.366,0.662,5.405,2.729,5.292c2.859-0.157,3.688-7.34,3.483-10.585c-0.121-1.938-0.666-4.772-2.542-4.271
		C65.208,58.629,65.204,58.648,65.133,58.691z"/>
</g>
</svg>
