<?xml version="1.0" encoding="utf-8"?>
<!-- Generator: Adobe Illustrator 16.0.4, SVG Export Plug-In . SVG Version: 6.00 Build 0)  -->
<!DOCTYPE svg PUBLIC "-//W3C//DTD SVG 1.1//EN" "http://www.w3.org/Graphics/SVG/1.1/DTD/svg11.dtd">
<svg version="1.1" id="Layer_1" xmlns="http://www.w3.org/2000/svg" xmlns:xlink="http://www.w3.org/1999/xlink" x="0px" y="0px"
	 width="105.436px" height="578.5px" viewBox="0 0 105.436 578.5" enable-background="new 0 0 105.436 578.5" xml:space="preserve">
<rect x="-0.037" y="327" opacity="0.8" fill="#FFFFFF" enable-background="new    " width="105.472" height="78"/>
<path fill="#666666" d="M59.972,20.285l-0.456,0.455c-0.504,0.504-1.312,0.504-1.812,0l-3.432-3.422
	c-0.836,0.396-1.769,0.625-2.753,0.625c-3.557,0-6.438-2.883-6.438-6.438c0-3.556,2.882-6.438,6.438-6.438
	c3.562,0,6.438,2.883,6.438,6.438c0,1.396-0.449,2.686-1.207,3.739l3.223,3.221C60.475,18.969,60.475,19.783,59.972,20.285z
	 M51.52,7.644c-2.133,0-3.854,1.729-3.854,3.862c0,2.133,1.729,3.862,3.854,3.862c2.139,0,3.863-1.729,3.863-3.862
	C55.382,9.374,53.656,7.644,51.52,7.644z"/>
<path fill="#CCCCCC" d="M96.058,280.604l-0.457,0.455c-0.504,0.504-1.312,0.504-1.812,0l-3.432-3.422
	c-0.836,0.396-1.769,0.625-2.752,0.625c-3.558,0-6.438-2.883-6.438-6.438c0-3.561,2.881-6.438,6.438-6.438
	c3.562,0,6.438,2.883,6.438,6.438c0,1.396-0.448,2.686-1.207,3.734l3.224,3.227C96.56,279.288,96.56,280.102,96.058,280.604z
	 M87.605,267.963c-2.133,0-3.854,1.729-3.854,3.863c0,2.133,1.729,3.857,3.854,3.857c2.145,0,3.865-1.729,3.865-3.857
	C91.468,269.693,89.74,267.963,87.605,267.963z"/>
<g>
	<path fill="#CCCCCC" d="M70.343,49.159v-1.775c0-0.338-0.271-0.611-0.611-0.611H35.704c-0.338,0-0.611,0.273-0.611,0.611v1.775
		c0,0.338,0.273,0.61,0.611,0.61H69.73C70.073,49.771,70.343,49.497,70.343,49.159z"/>
	<path fill="#CCCCCC" d="M70.343,58.48v-1.772c0-0.338-0.271-0.611-0.611-0.611H35.704c-0.338,0-0.611,0.273-0.611,0.611v1.772
		c0,0.338,0.273,0.611,0.611,0.611H69.73C70.073,59.094,70.343,58.818,70.343,58.48z"/>
	<path fill="#CCCCCC" d="M70.343,53.82v-1.773c0-0.338-0.271-0.61-0.611-0.61H35.704c-0.338,0-0.611,0.272-0.611,0.61v1.773
		c0,0.34,0.273,0.611,0.611,0.611H69.73C70.073,54.434,70.343,54.158,70.343,53.82z"/>
</g>
<path fill="#E23A3E" d="M12.713,69.366c-4.215,0-7.63,3.416-7.63,7.634c0,4.214,3.417,7.634,7.63,7.634
	c4.219,0,7.639-3.42,7.639-7.634C20.349,72.784,16.931,69.366,12.713,69.366z"/>
<path fill="#FFFFFF" d="M11.186,81.72l4.274-4.308l-4.274-4.309l-1.213,1.206l3.08,3.104l-3.08,3.103L11.186,81.72z"/>
<g>
	<path fill="#E23A3E" d="M105.435,219.499c0-2.556-2.062-4.623-4.625-4.623c-2.555,0-4.625,2.069-4.625,4.623
		c0,2.56,2.07,4.627,4.625,4.627C103.362,224.124,105.435,222.053,105.435,219.499z"/>
	<path fill="#FFFFFF" d="M98.202,218.909l2.604,2.59l2.61-2.59l-0.729-0.734l-1.881,1.865l-1.879-1.865L98.202,218.909z"/>
	<path fill="#CCCCCC" d="M105.435,245.874c0-2.556-2.062-4.623-4.625-4.623c-2.555,0-4.625,2.069-4.625,4.623
		c0,2.56,2.07,4.627,4.625,4.627C103.362,250.499,105.435,248.428,105.435,245.874z"/>
	<path fill="#FFFFFF" d="M98.202,245.284l2.604,2.59l2.61-2.59l-0.729-0.734l-1.881,1.865l-1.879-1.865L98.202,245.284z"/>
</g>
<polygon fill="#E23A3E" points="60.421,98.168 58.242,96.003 52.716,101.567 47.192,96.003 45.013,98.168 50.546,103.74 
	45.013,109.311 47.192,111.475 52.716,105.911 58.242,111.475 60.421,109.311 54.889,103.74 "/>
<g>
	<path fill="#E23A3E" d="M16.315,127.137c0-0.656-0.562-1.229-1.228-1.229H1.341c-0.678,0-1.229,0.552-1.229,1.227l0.012,8.787
		c0,0.329,0.127,0.639,0.354,0.868c0.229,0.231,0.543,0.362,0.866,0.362h13.752c0.679,0,1.229-0.552,1.229-1.228L16.315,127.137z
		 M1.458,135.807l-0.004-8.558l13.521,0.002v8.557L1.458,135.807z"/>
	<path fill="#E23A3E" d="M12.643,128.654l-4.479,3.477l-4.369-3.484c-0.133-0.104-0.297-0.152-0.463-0.136
		c-0.168,0.021-0.32,0.104-0.422,0.231c-0.199,0.253-0.188,0.609,0.045,0.84l4.812,3.842c0.108,0.092,0.25,0.138,0.396,0.138
		c0.141,0,0.271-0.046,0.383-0.13l4.873-3.782c0.135-0.102,0.219-0.25,0.229-0.417c0.021-0.167-0.021-0.334-0.127-0.466
		C13.307,128.485,12.914,128.444,12.643,128.654z M3.126,129.404l-0.006,0.004L3.126,129.404L3.126,129.404z"/>
</g>
<g>
	<path fill="#E23A3E" d="M11.939,163.577l-7.458-0.015l0.004-4.748H3.808L3.8,163.9c0,0.095,0.036,0.181,0.102,0.244
		c0.062,0.062,0.147,0.101,0.236,0.101l8.137,0.014l0,0c0.188,0,0.35-0.147,0.35-0.34l0.012-5.104h-0.688L11.939,163.577z"/>
	<path fill="#E23A3E" d="M14.916,149.461h-2.289l0.004-0.301c0-0.091-0.037-0.175-0.104-0.238l-0.89-0.92
		c-0.062-0.065-0.146-0.103-0.243-0.103l-7.23-0.014l0,0c-0.188,0-0.348,0.152-0.348,0.342l-0.008,1.231H1.516
		c-0.771,0-1.396,0.632-1.396,1.402v5.887c0,0.776,0.629,1.403,1.396,1.403h13.396c0.771,0,1.396-0.627,1.396-1.403v-5.887
		C16.319,150.093,15.692,149.461,14.916,149.461z M10.417,156.295H6.222v-1.521h4.194L10.417,156.295L10.417,156.295z
		 M11.939,151.496l-7.458-0.013l0.021-2.915l6.761,0.01l0.69,0.715L11.939,151.496z M13.899,156.181
		c-0.143,0-0.257-0.115-0.257-0.259c0-0.14,0.114-0.259,0.257-0.259c0.146,0,0.266,0.119,0.266,0.259
		C14.156,156.066,14.047,156.181,13.899,156.181z"/>
	<path fill="#E23A3E" d="M5.797,162.568h4.848c0.127,0,0.229-0.104,0.229-0.229s-0.104-0.229-0.229-0.229H5.797
		c-0.124,0-0.229,0.104-0.229,0.229C5.571,162.465,5.673,162.568,5.797,162.568z"/>
	<path fill="#E23A3E" d="M5.797,161.211h4.848c0.127,0,0.229-0.104,0.229-0.229c0-0.123-0.104-0.227-0.229-0.227H5.797
		c-0.124,0-0.229,0.104-0.229,0.227C5.571,161.109,5.673,161.211,5.797,161.211z"/>
	<path fill="#E23A3E" d="M5.797,159.854h4.848c0.127,0,0.229-0.102,0.229-0.229c0-0.123-0.104-0.229-0.229-0.229H5.797
		c-0.124,0-0.229,0.104-0.229,0.229C5.571,159.754,5.673,159.854,5.797,159.854z"/>
</g>
<g>
	<path fill="#E23A3E" d="M9.519,179.012c0,2.105,1.704,3.807,3.798,3.807c2.104,0,3.808-1.704,3.808-3.807
		c0-2.098-1.707-3.795-3.808-3.795C11.221,175.217,9.519,176.915,9.519,179.012z M11.62,178.575h1.257v-1.259
		c0-0.25,0.201-0.446,0.438-0.446c0.25,0,0.445,0.196,0.445,0.446v1.259h1.265c0.247,0,0.446,0.198,0.446,0.438
		c0,0.252-0.2,0.445-0.446,0.445H13.76v1.266c0,0.248-0.196,0.439-0.445,0.439c-0.234,0-0.438-0.191-0.438-0.439v-1.266H11.62
		c-0.247,0-0.444-0.193-0.444-0.445C11.176,178.773,11.374,178.575,11.62,178.575z"/>
	<path fill="#E23A3E" d="M11.431,186.881c0.828-0.818,1.415-1.943,1.634-3.121c-0.411-0.02-0.798-0.092-1.177-0.215
		c-0.22,1.209-0.951,2.367-1.907,2.984c-0.182,0.113-0.289,0.328-0.27,0.545c0.021,0.221,0.16,0.408,0.354,0.5
		c0.041,0.021,4.136,1.791,5.769,3.129H1.243c1.636-1.334,5.766-3.004,5.812-3.023c0.211-0.078,0.356-0.279,0.371-0.508
		c0.021-0.227-0.101-0.441-0.298-0.555c-1.165-0.664-2.021-2.08-2.123-3.529c-0.022-0.309-0.282-0.547-0.594-0.547
		c-0.011,0-0.021,0-0.021,0c-0.103-0.01-0.194-0.119-0.194-0.256c0-0.117,0.065-0.199,0.141-0.229
		c0.267-0.134,0.396-0.435,0.312-0.724c-0.146-0.455-0.221-0.933-0.221-1.406c0-2.403,1.823-4.356,4.06-4.356
		c0.471,0,0.915,0.098,1.333,0.25c0.294-0.324,0.646-0.611,1.021-0.844c-0.706-0.381-1.505-0.588-2.354-0.588
		c-2.896,0-5.249,2.485-5.249,5.538c0,0.462,0.06,0.912,0.161,1.365c-0.236,0.265-0.388,0.623-0.388,0.992
		c0,0.604,0.359,1.116,0.867,1.336c0.203,1.272,0.854,2.51,1.771,3.362c-1.506,0.658-4.354,1.986-5.51,3.103
		c-0.113,0.106-0.182,0.265-0.182,0.424v0.783c0,0.324,0.263,0.595,0.591,0.595h15.96c0.332,0,0.594-0.271,0.594-0.595v-0.783
		c0-0.159-0.059-0.315-0.181-0.424C15.776,188.958,12.897,187.561,11.431,186.881z"/>
</g>
<g>
	<path fill="#E23A3E" d="M92.797,297.732c-4.215,0-7.629,3.416-7.629,7.636c0,4.213,3.416,7.633,7.629,7.633
		c4.219,0,7.639-3.42,7.639-7.633C100.434,301.15,97.016,297.732,92.797,297.732z"/>
	<path fill="#FFFFFF" d="M91.522,309.675l4.273-4.308l-4.273-4.311l-1.213,1.205l3.08,3.104l-3.08,3.104L91.522,309.675z"/>
</g>
<g>
	<path fill="#E23A3E" d="M103.436,459.995c0-4.215-3.416-7.63-7.636-7.629c-4.212,0-7.633,3.416-7.633,7.628
		c0,4.22,3.42,7.639,7.634,7.639C100.018,467.631,103.435,464.214,103.436,459.995z"/>
	<path fill="#FFFFFF" d="M91.494,458.719l4.307,4.273l4.311-4.273l-1.204-1.212l-3.104,3.079l-3.104-3.079L91.494,458.719z"/>
</g>
<path fill="#E23A3E" d="M50.784,373.296L58.03,366l-7.244-7.296l-2.059,2.04L53.948,366l-5.222,5.256L50.784,373.296z"/>
<polygon fill="#CCCCCC" points="44.968,579.875 52.718,572.125 60.468,579.875 "/>
</svg>
